<svg xmlns="http://www.w3.org/2000/svg" width="100" viewBox="0 0 75 75" height="100" version="1.0"><path fill="#b572b5" d="M44.258 58.27v-.73h-.281v-5.044l-6.086-.047-.012-27.89h1.582v-.73h-1.582l-.004-.782h1.598v-.73h-1.598v-.782h1.61v-.734h-1.61v-1.942h3.738v-4.324h-.73v3.594h-3.008l-.004-3.594h-.73l.004 3.594h-2.989v-3.594h-.73v4.324h3.719v1.942h-1.59v.734h1.59v.781h-1.602v.73h1.602v.782h-1.618v.73h1.621l.012 27.887-5.367-.043v-.004h-.73v5.141h-.293v.73h.293v1.465h-.293v.73h1.316v-.73h-.293V58.27h.293v-.73h-.293v-4.403h.379v.746h.73v-.738l4.258.03.004 1.735h-2.75v3.555h.73V55.64h2.02v4.093h-.305v.73h1.317v-.73h-.278l-.003-4.093h2v2.824h.73V54.91h-2.73v-1.73l4.316.035v.668h.73v-.664l.305.004v4.316h-.305v.73h.305v1.465h-.305v.73h1.317v-.73h-.281V58.27h.28"/><path fill="#b572b5" d="M22.117 22.86a.864.864 0 0 1-.863-.864.85.85 0 0 1 .074-.344l1.133 1.133a.848.848 0 0 1-.344.074Zm.86-.864a.925.925 0 0 1-.032.238l-1.066-1.066a.86.86 0 0 1 1.098.828ZM56.03 51.074l.52-.515-3.028-3.086-.523.511-2.156 2.121-1.375-1.375 1.176-1.152-.512-.523-1.184 1.16-.55-.555 1.195-1.172-.512-.523-1.203 1.18-.55-.555 1.214-1.192-.512-.523-1.222 1.2-18.715-18.696a3.27 3.27 0 0 1 4.343.242l.52-.516a3.98 3.98 0 0 0-2.828-1.171c-.945 0-1.84.328-2.555.925l-.96-.957 3.488-3.488-.516-.52-4.414-4.41-.516.516 4.41 4.414-2.968 2.969-1.45-1.445 1.122-1.125-.516-.516-1.125 1.125-.633-.633c.137-.234.215-.504.215-.793a1.595 1.595 0 0 0-3.188 0A1.595 1.595 0 0 0 23 23.324l.613.613-1.14 1.141.52.516 1.14-1.14 1.445 1.448-2.992 2.996-4.414-4.414-.516.516 4.41 4.414.52.516 3.512-3.512.96.96a3.957 3.957 0 0 0-.921 2.552c0 1.066.414 2.07 1.168 2.824l.515-.516a3.265 3.265 0 0 1-.242-4.34L46.29 46.586l-1.066 1.043.511.523 1.07-1.05.555.554-1.086 1.063.516.523 1.086-1.07.555.555-1.102 1.082.508.52 1.11-1.087 1.374 1.375-2.117 2.078-.523.512 3.027 3.086.523-.512-2.515-2.566 2.12-2.082 2.54 2.535.516-.52-2.532-2.527 2.157-2.113 2.515 2.566"/><path fill="#b572b5" d="m56.672 37.66 3.617-.004v-.73l-3.617.004v-3h3.594v-.73H55.94v3.73h-3.687a3.268 3.268 0 0 1 3.254-3v-.73a4.001 4.001 0 0 0-3.988 3.73l-.946.004v-1.582h-.73v1.582h-.953a4.001 4.001 0 0 0-3.977-3.625v.73a3.274 3.274 0 0 1 3.242 2.895l-29.12.015v-7.48H14.71v.734h3.594V33.2H14.71v.73h3.594v2.997H14.71v.73h.016v.028l3.578-.004v2.976H14.71v.73h3.594v2.997H14.71v.73h4.324V37.68l29.121-.016a3.269 3.269 0 0 1-3.242 2.906v.73a4.003 4.003 0 0 0 3.977-3.636h.953v1.617h.73v-1.617h.965a4 4 0 0 0 3.969 3.523v-.73a3.266 3.266 0 0 1-3.23-2.797h3.663v3.727h4.325v-.73h-3.594V37.66"/><path fill="#b572b5" d="m56.477 24.113-.52-.515-2.539 2.539-2.125-2.121 2.562-2.567-.515-.515-2.563 2.562-2.117-2.113 2.543-2.543-.516-.516-3.058 3.059 2.633 2.633-1.5 1.5a3.247 3.247 0 0 1-.703-2.828l-.715-.16a3.995 3.995 0 0 0 .898 3.507l-.558.559a4.001 4.001 0 0 0-5.391.238l.516.516a3.272 3.272 0 0 1 4.355-.235L29.676 44.621a3.277 3.277 0 0 1 .34-4.219l-.516-.515a3.972 3.972 0 0 0-1.172 2.824c0 .89.293 1.738.828 2.434l-1.386 1.382-1.122-1.12-.52.515 1.126 1.125-1.113 1.113-2.586-2.586-4.93 4.926.52.52 4.41-4.415 2.07 2.07-.578.583-1.125-1.125-.516.52 1.121 1.12-.55.555-1.133-1.133-.516.516 1.133 1.133-.555.554-1.14-1.14-.516.515 1.14 1.141-1.25 1.254.516.516 1.25-1.25 1.121 1.12.52-.515-1.125-1.125.555-.555 1.132 1.133.516-.515-1.133-1.133.555-.555 1.14 1.14.516-.515-1.14-1.14.578-.583 2.172 2.168-4.415 4.414.516.516 4.414-4.41.516-.52-2.684-2.683 1.11-1.114 1.14 1.141.516-.516-1.14-1.14 1.366-1.367a3.96 3.96 0 0 0 2.672 1.027c1.067 0 2.07-.414 2.824-1.168l-.515-.52a3.273 3.273 0 0 1-4.465.145L47.68 27.633a3.273 3.273 0 0 1-.254 4.332l.515.515a3.972 3.972 0 0 0 1.172-2.824 3.98 3.98 0 0 0-.914-2.543l.578-.578a3.97 3.97 0 0 0 2.465.856c.508 0 1.016-.094 1.504-.293l-.273-.676c-1.07.433-2.27.27-3.176-.406l1.48-1.485 2.641 2.64 3.059-3.058"/><path fill="#b572b5" d="M45.11 27.832a.48.48 0 1 0-.962 0 .48.48 0 0 0 .48.477.48.48 0 0 0 .481-.477m2.579 2.371a.48.48 0 1 0-.961 0 .48.48 0 0 0 .48.477.48.48 0 0 0 .48-.477"/><path fill="#b572b5" d="M37.5.668C17.191.668.668 17.191.668 37.5S17.191 74.332 37.5 74.332 74.332 57.809 74.332 37.5 57.809.668 37.5.668ZM37.5 75c-10.016 0-19.434-3.902-26.516-10.984C3.902 56.934 0 47.516 0 37.5c0-10.016 3.902-19.434 10.984-26.516C18.066 3.898 27.484 0 37.5 0c10.016 0 19.434 3.898 26.516 10.984C71.098 18.066 75 27.484 75 37.5c0 10.016-3.902 19.434-10.984 26.516C56.934 71.098 47.516 75 37.5 75"/><path fill="#b572b5" d="M37.453 12.566c-13.746 0-24.93 11.188-24.93 24.934s11.184 24.93 24.93 24.93c13.75 0 24.934-11.184 24.934-24.93S51.203 12.566 37.453 12.566Zm0 50.532c-14.113 0-25.598-11.485-25.598-25.598 0-14.117 11.485-25.598 25.598-25.598 14.117 0 25.602 11.48 25.602 25.598 0 14.113-11.485 25.598-25.602 25.598m1.293-52.735a.333.333 0 0 1-.312-.215l-2.672-7.125a.337.337 0 0 1 .195-.43.336.336 0 0 1 .43.196l2.672 7.125a.334.334 0 0 1-.196.43.308.308 0 0 1-.117.02"/><path fill="#b572b5" d="M36.082 10.367a.41.41 0 0 1-.117-.02.334.334 0 0 1-.195-.429l2.656-7.129a.334.334 0 0 1 .625.234l-2.656 7.125a.335.335 0 0 1-.313.22M19.367 7.914l1.371 2.621 1.32-2.62Zm2.68 6.563L18.52 7.734a.335.335 0 0 1 .297-.488h3.785a.33.33 0 0 1 .285.16.33.33 0 0 1 .011.324l-1.593 3.16 4.058 1.801-.273.61-3.781-1.676 1.332 2.54-.594.312m5.503-5.973-.573-.34 3.101-5.273.578.34-3.105 5.273"/><path fill="#b572b5" d="m32.059 11.719-5.043-3.461.379-.551 5.043 3.461-.38.55M17.23 20.203l-5.609-5.648a.331.331 0 0 1 .133-.551l3.652-1.176.203.637-3.132 1.008 5.226 5.261-.473.47"/><path fill="#b572b5" d="m13.86 16.55-.208-.632 2.871-.95.211.634-2.875.949m-.929 9.086-6.621-4.012.343-.57 6.625 4.008-.347.574"/><path fill="#b572b5" d="M10.965 23.852h-.668v-2.825l-1.875 1.61-.434-.508 2.426-2.078A.33.33 0 0 1 10.77 20a.336.336 0 0 1 .195.305v3.547m.18 8.316L2.66 29.805a.332.332 0 0 1-.238-.27.338.338 0 0 1 .144-.332l3.274-2.172a.328.328 0 0 1 .27-.047l5.831 1.524-.168.648-5.687-1.488-2.543 1.687 7.781 2.168-.18.645m-.179 6.867H2.063v-.668h8.902v.668"/><path fill="#b572b5" d="m3.96 38.938-2.624-2.626.473-.472 2.625 2.625-.473.472m1.492-.027-2.137-2.625.52-.422 2.137 2.63-.52.417M4.39 44.516l2.923.41 2.23-1.836Zm3.122 1.113L5.59 47.21 10.168 46Zm-3.313 2.629a.334.334 0 0 1-.21-.594l2.624-2.16-3.91-.55a.337.337 0 0 1-.285-.31.33.33 0 0 1 .242-.343l8.215-2.27a.332.332 0 0 1 .387.168.331.331 0 0 1-.082.41l-2.97 2.442 3.692.52a.34.34 0 0 1 .29.312.336.336 0 0 1-.25.34l-7.657 2.023c-.027.004-.058.012-.086.012m2.86 6.996 3.136.152 1.078-2.765-2.855-.254Zm3.363.832h-.02l-3.875-.188a.337.337 0 0 1-.27-.16.337.337 0 0 1-.015-.316l1.672-3.531a.334.334 0 0 1 .332-.188l3.277.29 1.09-2.794.621.242-1.015 2.614 3.531.316-.059.664-3.726-.332-1.235 3.168a.333.333 0 0 1-.308.215m2.305 6.148h2.714V59.52h-2.714Zm3.05.668h-3.382a.333.333 0 0 1-.336-.332v-3.383c0-.183.148-.335.336-.335h3.382c.184 0 .332.152.332.336v3.382a.332.332 0 0 1-.332.332m5.263 7.223-1.419-2.543.582-.328.813 1.46 3.914-7.55.593.305-4.484 8.656m5.449 1.765a.333.333 0 0 1-.226-.09.33.33 0 0 1-.09-.347l2.734-8.457.637.203-2.516 7.778 3.485-1.422.254.617-4.153 1.695a.338.338 0 0 1-.125.024"/><path fill="#b572b5" d="M29.879 72.895a.33.33 0 0 1-.277-.149l-2.504-3.715.554-.375 2.102 3.125L32 63.921l.64.184-2.44 8.547a.332.332 0 0 1-.27.239c-.02.004-.035.004-.051.004m5.781.82c-.031 0-.062 0-.09-.012a.352.352 0 0 1-.265-.344l.011-9.035h.707l-.007 7.672.933-1.668a.354.354 0 0 1 .313-.18c.125 0 .246.067.308.18L38.508 72v-7.676h.707v9.035c0 .164-.11.305-.266.344a.352.352 0 0 1-.398-.168l-1.29-2.305-1.292 2.305a.353.353 0 0 1-.309.18m7.988-7.563 2.38.461-.645-2.75Zm1.293 3.77 2.422 1.008-1-3.055Zm3 1.988a.329.329 0 0 1-.136-.027l-3.543-1.473a.352.352 0 0 1-.152-.531l1.78-2.57-2.937-.567a.359.359 0 0 1-.266-.222.364.364 0 0 1 .051-.344l2.434-3.211-.035-.164.691-.164 1.086 4.636 1.363 4.172a.354.354 0 0 1-.093.371.35.35 0 0 1-.243.094m7.547-3.265c-.023 0-.047-.004-.074-.008l-2.547-.535.149-.696 1.722.36-4.457-7.036.602-.378 4.906 7.746a.355.355 0 0 1-.008.39.365.365 0 0 1-.293.157"/><path fill="#b572b5" d="M55.45 68.668a.35.35 0 0 1-.302-.168l-4.828-7.797.606-.375 4.383 7.082.425-1.707.688.172-.629 2.523a.355.355 0 0 1-.29.266c-.019.004-.038.004-.054.004m6.071-4.254h-.711v-5.637l-2.614 2.364a.351.351 0 0 1-.37.066.348.348 0 0 1-.22-.312l-.335-6.637.71-.035.297 5.89 2.649-2.398a.355.355 0 0 1 .594.262v6.437m6.726-8.914-8-4.8.367-.61 8 4.8-.367.61"/><path fill="#b572b5" d="m66.273 56.918-.91-3.262a.363.363 0 0 1 .047-.297.373.373 0 0 1 .258-.152l3.715-.367.07.707-3.293.328.797 2.852-.684.191m4.473-8.368-.976-2a.354.354 0 0 1 .148-.468l1.734-.941-7.71-2.223.656 1.332a.354.354 0 0 1-.149.469l-2.027 1.11-.34-.626 1.727-.945-.86-1.75a.35.35 0 0 1 .414-.496l9.317 2.687c.136.043.238.16.254.305a.363.363 0 0 1-.184.351l-2.195 1.192.832 1.691-.64.313m1.546-8.981-.613-.355.86-1.488-9.235.418a.346.346 0 0 1-.325-.18.353.353 0 0 1 .012-.371l1.422-2.18.598.387-1.047 1.601 9.191-.414a.349.349 0 0 1 .32.172c.067.11.067.25.004.36l-1.187 2.05m-8.168-7.734-.648-.281 1.64-3.797a.355.355 0 0 1 .453-.192l2.653 1.02-.258.664-2.332-.898-1.508 3.484"/><path fill="#b572b5" d="M68.598 31.61a.338.338 0 0 1-.125-.024l-2.653-1.02.254-.66 2.336.895 1.504-3.48.652.28-1.64 3.797a.354.354 0 0 1-.328.211M56.113 18.848l-.46-.54 6.546-5.628.465.539-6.55 5.629"/><path fill="#b572b5" d="m60.18 17.93-.703-.094.753-5.746.704.094-.754 5.746m-10.364-3.942-.625-.343 4.075-7.372.62.344-4.07 7.371m2.719 1.282-.62-.344 4.073-7.371.621.343-4.074 7.372"/><path fill="#b572b5" d="M53.543 13.07a.358.358 0 0 1-.348-.285l-.941-4.504a.357.357 0 0 1 .277-.422.353.353 0 0 1 .418.274l.942 4.508a.359.359 0 0 1-.274.421c-.027.004-.05.008-.074.008m-7.621-9.332-.664 2.172 2.566-.515Zm-2.145 7.04-.68-.208 2.301-7.562a.369.369 0 0 1 .243-.238.363.363 0 0 1 .332.074l2.863 2.488a.355.355 0 0 1-.164.617l-3.649.735-1.246 4.093m16.965 13.668-.32-.633 7.512-3.824.32.633-7.512 3.824m-26.258 11.34a3.437 3.437 0 0 0 1.258 4.684 3.428 3.428 0 0 0 4.68-1.254 3.432 3.432 0 0 0-1.254-4.684 3.425 3.425 0 0 0-4.684 1.254Zm2.965 5.809a4.08 4.08 0 0 1-2.043-.547 4.103 4.103 0 0 1-1.5-5.594 4.067 4.067 0 0 1 2.489-1.91 4.064 4.064 0 0 1 3.109.41 4.102 4.102 0 0 1 1.5 5.594 4.102 4.102 0 0 1-3.555 2.047M33.984 6.895c0 .425-.347.77-.773.77a.772.772 0 1 1 0-1.544c.426 0 .773.344.773.774m8.039.145a.77.77 0 0 1-.945.542.773.773 0 1 1 .945-.543m7.727 2.219a.768.768 0 0 1-1.055.281.771.771 0 1 1 1.055-.281m6.89 4.144a.77.77 0 1 1-1.09-1.093.77.77 0 0 1 1.09 0 .769.769 0 0 1 0 1.093m5.583 5.789a.774.774 0 0 1-1.055-.285.774.774 0 0 1 1.34-.773.774.774 0 0 1-.285 1.058m3.898 7.032a.773.773 0 0 1-.95-.543.779.779 0 0 1 .548-.95.773.773 0 0 1 .402 1.493m1.938 7.804a.77.77 0 0 1-.77-.773.772.772 0 1 1 1.543 0 .77.77 0 0 1-.773.773m-.141 8.039a.773.773 0 1 1 .4-1.49.773.773 0 0 1-.4 1.49m-2.223 7.731a.773.773 0 0 1 .774-1.34.77.77 0 0 1 .281 1.055.772.772 0 0 1-1.055.285m-4.145 6.891a.776.776 0 0 1 0-1.094.777.777 0 0 1 1.095 0c.3.3.3.789 0 1.093a.776.776 0 0 1-1.094 0m-5.785 5.583a.768.768 0 0 1 .28-1.055.771.771 0 1 1-.281 1.055m-7.035 3.894a.77.77 0 0 1 .547-.945.769.769 0 0 1 .946.547.773.773 0 0 1-1.492.398m-7.805 1.941c0-.425.347-.773.773-.773.426 0 .774.348.774.773a.775.775 0 0 1-.774.774.775.775 0 0 1-.773-.774m-8.039-.145a.772.772 0 1 1 1.493.398.772.772 0 0 1-1.493-.397m-7.731-2.219a.778.778 0 0 1 1.059-.285.773.773 0 1 1-1.059.285m-6.886-4.148a.77.77 0 0 1 1.09 0 .77.77 0 1 1-1.09 0m-5.586-5.785a.773.773 0 0 1 .773 1.34.774.774 0 0 1-.773-1.34M8.79 48.773a.776.776 0 0 1 .948.547.775.775 0 0 1-.547.946.77.77 0 0 1-.945-.547.77.77 0 0 1 .543-.946m-1.941-7.8a.77.77 0 0 1 .773.77.77.77 0 0 1-.773.773.77.77 0 0 1-.77-.774.77.77 0 0 1 .77-.77m.144-8.042a.776.776 0 0 1 .547.949.77.77 0 0 1-.945.543.77.77 0 0 1-.547-.945.775.775 0 0 1 .945-.547m2.223-7.727a.772.772 0 1 1-.774 1.336.772.772 0 0 1 .774-1.336m4.145-6.89c.3.3.3.789 0 1.093a.776.776 0 0 1-1.094 0 .776.776 0 0 1 0-1.093.774.774 0 0 1 1.093 0m5.786-5.583a.773.773 0 1 1-1.34.773.773.773 0 0 1 1.34-.773m7.035-3.894a.772.772 0 1 1-1.491.4.772.772 0 0 1 1.49-.4"/></svg>